<?xml version="1.0" encoding="UTF-8" standalone="no"?>
<!DOCTYPE svg PUBLIC "-//W3C//DTD SVG 1.1//EN"
 "http://www.w3.org/Graphics/SVG/1.1/DTD/svg11.dtd">
<!-- Generated by graphviz version 2.36.0 (20140111.2315)
 -->
<!-- Title: G Pages: 1 -->
<svg width="152pt" height="366pt"
 viewBox="0.00 0.00 152.00 366.00" xmlns="http://www.w3.org/2000/svg" xmlns:xlink="http://www.w3.org/1999/xlink">
<g id="graph0" class="graph" transform="scale(1 1) rotate(0) translate(4 362)">
<title>G</title>
<polygon fill="white" stroke="none" points="-4,4 -4,-362 148,-362 148,4 -4,4"/>
<g id="clust1" class="cluster"><title>cluster_Global</title>
<path fill="none" stroke="gray" d="M20,-8C20,-8 124,-8 124,-8 130,-8 136,-14 136,-20 136,-20 136,-338 136,-338 136,-344 130,-350 124,-350 124,-350 20,-350 20,-350 14,-350 8,-344 8,-338 8,-338 8,-20 8,-20 8,-14 14,-8 20,-8"/>
<text text-anchor="middle" x="72" y="-337.2" font-family="Times,serif" font-size="11.00" fill="gray">Global</text>
</g>
<!-- \\TerminalHelper -->
<g id="node1" class="node"><title>\\TerminalHelper</title>
<polygon fill="none" stroke="black" points="127.5,-322 16.5,-322 16.5,-286 127.5,-286 127.5,-322"/>
<text text-anchor="middle" x="72" y="-301.2" font-family="Courier,monospace" font-size="11.00">TerminalHelper</text>
</g>
<!-- \\TestDisplay -->
<g id="node2" class="node"><title>\\TestDisplay</title>
<polygon fill="none" stroke="black" points="117.5,-268 26.5,-268 26.5,-232 117.5,-232 117.5,-268"/>
<text text-anchor="middle" x="72" y="-247.2" font-family="Courier,monospace" font-size="11.00">TestDisplay</text>
</g>
<!-- \\TestColor -->
<g id="node3" class="node"><title>\\TestColor</title>
<polygon fill="none" stroke="black" points="110.5,-214 33.5,-214 33.5,-178 110.5,-178 110.5,-214"/>
<text text-anchor="middle" x="72" y="-193.2" font-family="Courier,monospace" font-size="11.00">TestColor</text>
</g>
<!-- \\TestMode -->
<g id="node4" class="node"><title>\\TestMode</title>
<polygon fill="none" stroke="black" points="107.5,-160 36.5,-160 36.5,-124 107.5,-124 107.5,-160"/>
<text text-anchor="middle" x="72" y="-139.2" font-family="Courier,monospace" font-size="11.00">TestMode</text>
</g>
<!-- \\TestCursor -->
<g id="node5" class="node"><title>\\TestCursor</title>
<polygon fill="none" stroke="black" points="114,-106 30,-106 30,-70 114,-70 114,-106"/>
<text text-anchor="middle" x="72" y="-85.2" font-family="Courier,monospace" font-size="11.00">TestCursor</text>
</g>
<!-- \\Test -->
<g id="node6" class="node"><title>\\Test</title>
<polygon fill="none" stroke="black" points="99,-52 45,-52 45,-16 99,-16 99,-52"/>
<text text-anchor="middle" x="72" y="-31.2" font-family="Courier,monospace" font-size="11.00">Test</text>
</g>
</g>
</svg>
